<svg xmlns="http://www.w3.org/2000/svg" width="1024" height="1024"><path fill="#FDFAF8" d="M0 0h1024v1024H0z"/><path fill="#013C68" d="M271 377h8l26 14 22 12 2 2-15 10-26 16-19 12-26 16-18 11h-2v2l6 2 18 9 5-1 23-14 21-13 52-32 6-3 16 8 18 10 4 5 1 5v55l-6 8-8 7-13 11-18 13-17 11-24 14-23 12-22 10-21 7-14 3h-9l-12-4-5-6-1-2v-6l-22 3h-10l-26-12-5-2v-1l64-7h8l3-9 3-6-43 6-8 1h-14l-24-10-8-3v-1l106-13 6-12-14 1-48 6h-6v-73l2-8 5-4 32-19 29-17 25-15z"/><path fill="#C72B25" d="m400 472 10 1 13 4 8 6 4 8v12l-4 13-7 12-11 14-19 19-1 17-3 6-9 7-28 17-45 27-24 14-9 1-14-7-10-6-43-24-3-3 9 2h16l17-3 21-7 24-11 25-13 25-15 19-13 16-12 10-9 8-7 9-9 9-13 3-7v-8l-3-6-10-5z"/><path fill="#013C68" d="M473 515h42l10 2 12 6 7 8 4 9 1 4v15l-4 10-7 8-8 5-16 4h-19v36h-22zM511 392h23l5 12 23 62 11 29v3l-22 1-8-22-41-1-2 9-5 13-1 1h-21l1-6 11-30 18-49zM615 421h12l8 4 6 7 8-6 7-4 4-1h14l8 4 6 7 3 7 1 5v53h-20l-1-48-3-7-4-3h-7l-7 4-3 3-1 51h-21l-1-50-3-6-3-2h-8l-6 4-3 3-1 51h-20v-74h18l1 9 7-7 5-3zM573 545h21l10 3 6 4 6 7 2 5 1 16v42h-18l-1-9-7 7-7 3-6 1h-8l-11-4-5-5-4-8v-11l3-8 8-7 11-4h25l-3-10-4-3-3-1h-13l-14 4-3 1v-19l9-3zM787 545h17l10 4 9 8 5 10 2 8v14h-52l4 10 5 5 6 2h11l10-3 5-3h2l6 11-2 4-10 6-13 3h-10l-12-3-10-6-7-8-4-9-1-5v-17l3-10 6-10 9-7zM732 421h15l11 4 10 9 5 12 1 4v15h-52l4 10 5 5 5 2h14l12-5h3l6 10-2 4-10 6-12 3h-10l-12-3-9-5-5-4-6-9-3-11v-16l3-10 6-9 8-7 9-4zM711 545h18l10 4 8 6 5 8-4 4-10 6-3-1-4-6-5-3h-10l-7 4-4 6-1 4v14l5 10 8 4h10l7-4 4-6 11 7 4 4-4 6-7 6-8 4-10 2-13-1-11-4-9-7-6-9-3-11v-16l4-12 6-8 7-6zM666 545h12v20h-12l-6 3-4 6-1 4-1 44h-21v-75h20l1 8 4-6zM842 515h19v107h-19zM819 421h11v20l-13 1-6 4-4 8-1 45h-20v-76h19l1 8 6-7zM392 561h1v17l-3 6-9 7-28 17-45 27-24 14-9 1-14-7 1-2 8-2 21-10 27-16 20-12 27-18 16-12 10-8z"/><path fill="#C72B25" d="M217 528h7l-7 16-2 3-43 6-8 1h-14l-24-10-8-3v-1l50-6z"/><path fill="#013C68" d="M840 422h19v77h-19z"/><path fill="#FDFAF8" d="M495 534h17l9 3 4 4 2 5v9l-4 8-5 3-4 1h-19z"/><path fill="#C62B25" d="M201 562h7l-2 6-6 13-22 3h-10l-26-12-5-2v-1z"/><path fill="#FDFAF8" d="M522 420h2l10 29 2 8h-27l12-34z"/><path fill="#013C68" d="M845 391h10l5 4 2 3v9l-5 6-2 1h-9l-5-3-3-3-1-8 3-6z"/><path fill="#FDFAF8" d="M579 589h20v9l-5 7-5 3-9 1-5-2-3-3-1-5 3-7zM791 560h9l6 3 4 5 1 8h-32l1-7 4-6zM735 436h9l6 3 4 5 1 8h-32l1-7 3-5z"/></svg>