<?xml version="1.0" encoding="utf-8"?>
<svg baseProfile="tiny-ps" height="1024" version="1.1" viewBox="0 0 1024 1024" width="1024" xmlns="http://www.w3.org/2000/svg"><title>Your Logo Title</title>
<path d="m0 0h1024v1024h-1024z" fill="#FDFAF8" transform="translate(0)"/>
<path d="m0 0h8l26 14 22 12 2 2-15 10-26 16-19 12-26 16-18 11h-2v2l6 2 18 9 5-1 23-14 21-13 52-32 6-3 16 8 18 10 4 5 1 5v55l-6 8-8 7-13 11-18 13-17 11-24 14-23 12-22 10-21 7-14 3h-9l-12-4-5-6-1-2v-6l-22 3h-10l-26-12-5-2v-1l64-7h8l3-9 3-6-43 6-8 1h-14l-24-10-8-3v-1l106-13 6-12-14 1-48 6h-6v-73l2-8 5-4 32-19 29-17 25-15z" fill="#013C68" transform="translate(271,377)"/>
<path d="m0 0 10 1 13 4 8 6 4 8v12l-4 13-7 12-11 14-19 19-1 17-3 6-9 7-28 17-45 27-24 14-9 1-14-7-10-6-43-24-3-3 9 2h16l17-3 21-7 24-11 25-13 25-15 19-13 16-12 10-9 8-7 9-9 9-13 3-7v-8l-3-6-10-5z" fill="#C72B25" transform="translate(400,472)"/>
<path d="m0 0h42l10 2 12 6 7 8 4 9 1 4v15l-4 10-7 8-8 5-16 4h-19v36h-22z" fill="#013C68" transform="translate(473,515)"/>
<path d="m0 0h23l5 12 23 62 11 29v3l-22 1-8-22-41-1-2 9-5 13-1 1h-21l1-6 11-30 18-49z" fill="#013C68" transform="translate(511,392)"/>
<path d="m0 0h12l8 4 6 7 8-6 7-4 4-1h14l8 4 6 7 3 7 1 5v53h-20l-1-48-3-7-4-3h-7l-7 4-3 3-1 51h-21l-1-50-3-6-3-2h-8l-6 4-3 3-1 51h-20v-74h18l1 9 7-7 5-3z" fill="#013C68" transform="translate(615,421)"/>
<path d="m0 0h21l10 3 6 4 6 7 2 5 1 16v42h-18l-1-9-7 7-7 3-6 1h-8l-11-4-5-5-4-8v-11l3-8 8-7 11-4h25l-3-10-4-3-3-1h-13l-14 4-3 1v-19l9-3z" fill="#013C68" transform="translate(573,545)"/>
<path d="m0 0h17l10 4 9 8 5 10 2 8v14h-52l4 10 5 5 6 2h11l10-3 5-3h2l6 11-2 4-10 6-13 3h-10l-12-3-10-6-7-8-4-9-1-5v-17l3-10 6-10 9-7z" fill="#013C68" transform="translate(787,545)"/>
<path d="m0 0h15l11 4 10 9 5 12 1 4v15h-52l4 10 5 5 5 2h14l12-5h3l6 10-2 4-10 6-12 3h-10l-12-3-9-5-5-4-6-9-3-11v-16l3-10 6-9 8-7 9-4z" fill="#013C68" transform="translate(732,421)"/>
<path d="m0 0h18l10 4 8 6 5 8-4 4-10 6-3-1-4-6-5-3h-10l-7 4-4 6-1 4v14l5 10 8 4h10l7-4 4-6 11 7 4 4-4 6-7 6-8 4-10 2-13-1-11-4-9-7-6-9-3-11v-16l4-12 6-8 7-6z" fill="#013C68" transform="translate(711,545)"/>
<path d="m0 0h12v20h-12l-6 3-4 6-1 4-1 44h-21v-75h20l1 8 4-6z" fill="#013C68" transform="translate(666,545)"/>
<path d="m0 0h19v107h-19z" fill="#013C68" transform="translate(842,515)"/>
<path d="m0 0h11v20l-13 1-6 4-4 8-1 45h-20v-76h19l1 8 6-7z" fill="#013C68" transform="translate(819,421)"/>
<path d="m0 0h1v17l-3 6-9 7-28 17-45 27-24 14-9 1-14-7 1-2 8-2 21-10 27-16 20-12 27-18 16-12 10-8z" fill="#013C68" transform="translate(392,561)"/>
<path d="m0 0h7l-7 16-2 3-43 6-8 1h-14l-24-10-8-3v-1l50-6z" fill="#C72B25" transform="translate(217,528)"/>
<path d="m0 0h19v77h-19z" fill="#013C68" transform="translate(840,422)"/>
<path d="m0 0h17l9 3 4 4 2 5v9l-4 8-5 3-4 1h-19z" fill="#FDFAF8" transform="translate(495,534)"/>
<path d="m0 0h7l-2 6-6 13-22 3h-10l-26-12-5-2v-1z" fill="#C62B25" transform="translate(201,562)"/>
<path d="m0 0h2l10 29 2 8h-27l12-34z" fill="#FDFAF8" transform="translate(522,420)"/>
<path d="m0 0h10l5 4 2 3v9l-5 6-2 1h-9l-5-3-3-3-1-8 3-6z" fill="#013C68" transform="translate(845,391)"/>
<path d="m0 0h20v9l-5 7-5 3-9 1-5-2-3-3-1-5 3-7z" fill="#FDFAF8" transform="translate(579,589)"/>
<path d="m0 0h9l6 3 4 5 1 8h-32l1-7 4-6z" fill="#FDFAF8" transform="translate(791,560)"/>
<path d="m0 0h9l6 3 4 5 1 8h-32l1-7 3-5z" fill="#FDFAF8" transform="translate(735,436)"/>
</svg>